<?xml version="1.0" encoding="utf-8"?><!DOCTYPE svg  PUBLIC '-//W3C//DTD SVG 1.1//EN'  'http://www.w3.org/Graphics/SVG/1.1/DTD/svg11.dtd'><svg viewBox="0 0 512 512" xmlns="http://www.w3.org/2000/svg" xmlns:xlink="http://www.w3.org/1999/xlink"><style>:root>svg{display:none}:root>svg:target{display:block}</style><svg viewBox="0 0 12 7" id="arrow-down" xmlns="http://www.w3.org/2000/svg"><path fill-rule="evenodd" clip-rule="evenodd" d="M.776 1.024l.848-.848L6 4.552 10.376.176l.848.848L6 6.25.776 1.024z"/></svg><svg viewBox="0 0 20 19" id="cart" xmlns="http://www.w3.org/2000/svg"><path fill-rule="evenodd" clip-rule="evenodd" d="M2.798 2H0V0h4.44l.634 3.195a1 1 0 00.98.805h10.06c2.095 0 3.544 2.092 2.809 4.053l-1.5 4A3 3 0 0114.614 14h-5.33A5 5 0 014.38 9.973L2.798 2zm2.826 3.97l.718 3.614A3 3 0 009.284 12h5.33a1 1 0 00.936-.649l1.5-4A1 1 0 0016.114 6H6.054c-.145 0-.289-.01-.43-.03z"/><path d="M8 17.5a1.5 1.5 0 11-3 0 1.5 1.5 0 013 0zM15.5 19a1.5 1.5 0 100-3 1.5 1.5 0 000 3z"/></svg><svg viewBox="0 0 78.369 78.369" id="check" xmlns="http://www.w3.org/2000/svg"><path d="M78.049 19.015L29.458 67.606a1.094 1.094 0 01-1.548 0L.32 40.015a1.094 1.094 0 010-1.547l6.704-6.704a1.095 1.095 0 011.548 0l20.113 20.112 41.113-41.113a1.095 1.095 0 011.548 0l6.703 6.704a1.094 1.094 0 010 1.548z"/></svg><svg viewBox="0 0 512 512" id="facebook" xmlns="http://www.w3.org/2000/svg"><path d="M258.8 507.2C120.4 507.8 6.6 392.6 9.9 251.9 13 117.9 124 7.2 262 8.7 398.7 10.2 511.8 124 508.1 264.9c-3.5 133.4-113.6 243-249.3 242.3zM40.2 258.3C41.3 383.6 142.9 480.1 262.9 478c116.2-2.1 214.7-96.8 214.7-220 0-125.3-102.4-222.2-222.8-219.9C138.6 40.2 41 135.2 40.2 258.3z"/><path d="M206.8 433.4V257.1h-38.5v-59.4c1.7-.1 3.4-.3 5.2-.3 9.3 0 18.7-.2 28 .1 4.1.1 5.5-1 5.4-5.2-.2-15.2-.2-30.3-.1-45.5.1-17.1 4.9-32.6 17.1-45 11.8-12 26.9-18.5 43.3-19.5 26.4-1.5 52.9-1.3 79.4-1.8.3 0 .6.3 1.2.6v61c-1.9.1-3.7.2-5.4.2h-36c-12.1.1-19.2 7.3-19.2 19.2 0 11.3 0 22.7.1 34 0 .3.2.6.5 1.7h60.8c-2.6 20.3-5 39.7-7.6 59.8h-54v176.6c-26.9-.2-53.1-.2-80.2-.2z"/></svg><svg viewBox="0 0 21 19" id="heart" xmlns="http://www.w3.org/2000/svg"><path fill-rule="evenodd" clip-rule="evenodd" d="M10.243 1.757a6 6 0 018.485 8.486l-8.485 8.485-8.486-8.485a6 6 0 018.486-8.486zm7.07 1.415a4 4 0 00-5.656 0l-1.414 1.414-1.415-1.414a4 4 0 00-5.656 5.656l7.07 7.072 7.072-7.072a4 4 0 000-5.656z"/></svg><svg viewBox="0 0 10 12" id="marker" xmlns="http://www.w3.org/2000/svg"><path fill-rule="evenodd" clip-rule="evenodd" d="M2.03 1.777C.563 3.18.387 5.399 1.616 6.998L5 11.4l3.384-4.402C9.613 5.4 9.437 3.181 7.97 1.777c-1.64-1.57-4.3-1.57-5.94 0zM5 6.6A1.8 1.8 0 105 3a1.8 1.8 0 000 3.6z"/></svg><svg viewBox="0 0 20 19" id="message" xmlns="http://www.w3.org/2000/svg"><path d="M15 6a1 1 0 01-1 1H6a1 1 0 010-2h8a1 1 0 011 1zM5 10a1 1 0 001 1h8a1 1 0 100-2H6a1 1 0 00-1 1z"/><path fill-rule="evenodd" clip-rule="evenodd" d="M4 0a4 4 0 00-4 4v12c0 1.881 1.936 3.14 3.655 2.375l4.57-2.03A3.998 3.998 0 019.848 16H16a4 4 0 004-4V4a4 4 0 00-4-4H4zm12 2H4a2 2 0 00-2 2v12a.6.6 0 00.843.548l4.569-2.03A6 6 0 019.849 14H16a2 2 0 002-2V4a2 2 0 00-2-2z"/></svg><svg viewBox="0 0 20 17" id="product-heart" xmlns="http://www.w3.org/2000/svg"><path fill-rule="evenodd" clip-rule="evenodd" d="M9.537 3.196l-.067.068A4.53 4.53 0 103.064 9.67l3.733 3.733a4.53 4.53 0 006.406 0l3.733-3.733a4.53 4.53 0 00-6.406-6.406l-.462.462-.53-.53zm4.727 11.268l3.733-3.734A6.03 6.03 0 0010 1.731a6.03 6.03 0 00-7.997 9l3.733 3.733a6.03 6.03 0 008.528 0z"/></svg><svg viewBox="0 0 18 18" id="search" xmlns="http://www.w3.org/2000/svg"><path fill-rule="evenodd" clip-rule="evenodd" d="M12.848 14.027a7.5 7.5 0 111.178-1.178l3.063 3.062-1.178 1.178-3.063-3.062zM14 8.166a5.833 5.833 0 11-11.667 0 5.833 5.833 0 0111.667 0z"/></svg></svg>